<svg width="19" height="12" viewBox="0 0 19 12" fill="none" xmlns="http://www.w3.org/2000/svg">
<path d="M16.7648 0H1.76481C0.937903 0 0.264801 0.67275 0.264801 1.50001V10.5C0.264801 11.3273 0.937903 12 1.76481 12H16.7648C17.5917 12 18.2648 11.3273 18.2648 10.5V1.50001C18.2648 0.67275 17.5917 0 16.7648 0ZM8.1398 2.25C8.1398 2.04272 8.30753 1.87499 8.51481 1.87499H10.0148C10.2221 1.87499 10.3898 2.04272 10.3898 2.25V3.75001C10.3898 3.95729 10.2221 4.12502 10.0148 4.12502H8.51481C8.30753 4.12502 8.1398 3.95729 8.1398 3.75001V2.25ZM8.1398 5.25002C8.1398 5.04274 8.30753 4.87501 8.51481 4.87501H10.0148C10.2221 4.87501 10.3898 5.04274 10.3898 5.25002V6.75004C10.3898 6.95732 10.2221 7.12505 10.0148 7.12505H8.51481C8.30753 7.12505 8.1398 6.95732 8.1398 6.75004V5.25002ZM5.13981 2.25C5.13981 2.04272 5.30754 1.87499 5.51482 1.87499H7.0148C7.22208 1.87499 7.38981 2.04272 7.38981 2.25V3.75001C7.38981 3.95729 7.22208 4.12502 7.0148 4.12502H5.51479C5.30751 4.12502 5.13978 3.95729 5.13978 3.75001V2.25H5.13981ZM5.13981 5.25002C5.13981 5.04274 5.30754 4.87501 5.51482 4.87501H7.0148C7.22208 4.87501 7.38981 5.04274 7.38981 5.25002V6.75004C7.38981 6.95732 7.22208 7.12505 7.0148 7.12505H5.51479C5.30751 7.12505 5.13978 6.95732 5.13978 6.75004V5.25002H5.13981ZM4.38979 9.75002C4.38979 9.9573 4.22206 10.125 4.01478 10.125H2.5148C2.30752 10.125 2.13979 9.9573 2.13979 9.75002V8.25001C2.13979 8.04273 2.30752 7.875 2.5148 7.875H4.01481C4.22209 7.875 4.38982 8.04273 4.38982 8.25001V9.75002H4.38979ZM4.38979 6.75C4.38979 6.95728 4.22206 7.12501 4.01478 7.12501H2.5148C2.30752 7.12501 2.13979 6.95728 2.13979 6.75V5.24999C2.13979 5.04274 2.30752 4.87501 2.5148 4.87501H4.01481C4.22209 4.87501 4.38982 5.04274 4.38982 5.25002V6.75H4.38979ZM4.38979 3.75001C4.38979 3.95729 4.22206 4.12502 4.01478 4.12502H2.5148C2.30752 4.12502 2.13979 3.95729 2.13979 3.75001V2.25C2.13979 2.04272 2.30752 1.87499 2.5148 1.87499H4.01481C4.22209 1.87499 4.38982 2.04272 4.38982 2.25V3.75001H4.38979ZM13.3898 9.75002C13.3898 9.9573 13.2221 10.125 13.0148 10.125H5.51479C5.30751 10.125 5.13978 9.9573 5.13978 9.75002V8.25001C5.13978 8.04273 5.30751 7.875 5.51479 7.875H13.0148C13.2221 7.875 13.3898 8.04273 13.3898 8.25001V9.75002ZM13.3898 6.75C13.3898 6.95728 13.2221 7.12501 13.0148 7.12501H11.5148C11.3075 7.12501 11.1398 6.95728 11.1398 6.75V5.24999C11.1398 5.04271 11.3075 4.87498 11.5148 4.87498H13.0148C13.2221 4.87498 13.3898 5.04271 13.3898 5.24999V6.75H13.3898ZM13.3898 3.75001C13.3898 3.95729 13.2221 4.12502 13.0148 4.12502H11.5148C11.3075 4.12502 11.1398 3.95729 11.1398 3.75001V2.25C11.1398 2.04272 11.3075 1.87499 11.5148 1.87499H13.0148C13.2221 1.87499 13.3898 2.04272 13.3898 2.25V3.75001H13.3898ZM16.3898 9.75002C16.3898 9.9573 16.2221 10.125 16.0148 10.125H14.5148C14.3075 10.125 14.1398 9.9573 14.1398 9.75002V8.25001C14.1398 8.04273 14.3075 7.875 14.5148 7.875H16.0148C16.2221 7.875 16.3898 8.04273 16.3898 8.25001V9.75002ZM16.3898 6.75C16.3898 6.95728 16.2221 7.12501 16.0148 7.12501H14.5148C14.3075 7.12501 14.1398 6.95728 14.1398 6.75V5.24999C14.1398 5.04271 14.3075 4.87498 14.5148 4.87498H16.0148C16.2221 4.87498 16.3898 5.04271 16.3898 5.24999V6.75ZM16.3898 3.75001C16.3898 3.95729 16.2221 4.12502 16.0148 4.12502H14.5148C14.3075 4.12502 14.1398 3.95729 14.1398 3.75001V2.25C14.1398 2.04272 14.3075 1.87499 14.5148 1.87499H16.0148C16.2221 1.87499 16.3898 2.04272 16.3898 2.25V3.75001Z" fill="#7D7D7D"/>
</svg>
