<svg width="23" height="23" viewBox="0 0 23 23" fill="none" xmlns="http://www.w3.org/2000/svg">
<path d="M1.04313 19.3368C1.04939 19.3431 1.04899 19.3372 1.04313 19.3368C1.28853 19.5986 1.53821 19.8373 1.80707 20.1007C2.21289 20.4902 2.62577 20.8976 3.01838 21.3503C3.65361 22.0238 4.37168 22.3702 5.28638 22.4324C5.37433 22.4384 5.46815 22.4447 5.5557 22.4448C7.28958 22.4517 8.86169 21.8815 10.036 21.3835C13.2456 20.0024 16.0047 17.9195 18.23 15.1933C20.0657 12.9193 21.2512 10.782 21.974 8.44983C22.4201 7.02687 22.5422 5.90291 22.3814 4.82392C22.2761 4.13391 21.9736 3.54723 21.4539 3.0275L19.3186 0.892226C19.013 0.602988 18.6981 0.435688 18.3991 0.415371C18.0297 0.390275 17.7458 0.592771 17.5709 0.767654C17.5654 0.773119 17.56 0.778586 17.5545 0.784051C17.2196 1.09397 16.903 1.41681 16.5704 1.76191C16.4014 1.93719 16.2265 2.11207 16.052 2.29282L14.56 3.78479C13.9807 4.3641 14.0198 4.93871 14.6835 5.60247C14.8651 5.78406 15.0408 5.96525 15.222 6.14098C15.7488 6.6787 16.2498 7.17964 16.791 7.67165C16.8035 7.68417 16.8156 7.69083 16.8223 7.70296C17.3608 8.24147 17.3004 8.72763 17.2176 9.05468C17.2129 9.07187 17.2083 9.08906 17.2036 9.10625C16.8558 10.0865 16.334 10.9965 15.5196 12.0676L15.5142 12.0731C14.0313 13.9567 12.4306 15.3946 10.6293 16.457C10.3992 16.5932 10.1613 16.6996 9.93476 16.8009C9.73085 16.8921 9.53826 16.9782 9.37539 17.0722C9.35274 17.0823 9.33048 17.0983 9.30782 17.1085C9.11523 17.1946 8.93079 17.2288 8.7373 17.2156C8.25063 17.1826 7.92502 16.857 7.81857 16.7505L5.67703 14.609C5.46413 14.3961 5.13117 14.1342 4.76177 14.1091C4.39824 14.0844 4.11474 14.2927 3.94651 14.4797C3.94105 14.4852 3.94105 14.4852 3.93558 14.4907L0.924308 17.5019C0.361004 18.059 0.40283 18.6746 1.04313 19.3368Z" fill="white"/>
</svg>
